<?xml version="1.0"?>
<svg xmlns="http://www.w3.org/2000/svg" viewBox="0 0 64 64"><g id="Outline"><path d="M35.461,19.626a9.866,9.866,0,0,0-6.922,0,1,1,0,0,0,.7,1.873,7.847,7.847,0,0,1,5.518,0,1,1,0,0,0,.7-1.873Z"/><path d="M38.44,15.575a14,14,0,0,0-12.88,0,1,1,0,1,0,.92,1.776,12,12,0,0,1,11.04,0,1,1,0,1,0,.92-1.776Z"/><path d="M22.691,11.6a1,1,0,0,0,1.038,1.711,15.892,15.892,0,0,1,16.542,0A1,1,0,0,0,41.309,11.6,17.893,17.893,0,0,0,22.691,11.6Z"/><path d="M61.435,16.1l-29-14a1,1,0,0,0-.87,0l-29,14A1,1,0,0,0,2,17V61a1,1,0,0,0,1,1H9a1,1,0,0,0,1-1V30H54V61a1,1,0,0,0,1,1h6a1,1,0,0,0,1-1V17A1,1,0,0,0,61.435,16.1ZM8,28V26H56v2ZM60,60H56V30h1a1,1,0,0,0,1-1V25a1,1,0,0,0-1-1H7a1,1,0,0,0-1,1v4a1,1,0,0,0,1,1H8V60H4V17.628L32,4.11,60,17.628Z"/><path d="M49.924,44.422a1,1,0,0,0-.217-1.09l-4-4A1,1,0,0,0,45,39.039H40a1,1,0,0,0-.707.293l-3.707,3.707H28.414l-3.707-3.707A1,1,0,0,0,24,39.04H19a1,1,0,0,0-.707.293l-4,4A1,1,0,0,0,15,45.039h5v2H15a1,1,0,0,0-.707,1.707l4,4a1,1,0,0,0,.707.292h5a1,1,0,0,0,.707-.293l3.707-3.708h7.172l3.707,3.707a1,1,0,0,0,.707.293h5a1,1,0,0,0,.707-.292l4-4A1,1,0,0,0,49,47.039H44v-2h5A1,1,0,0,0,49.924,44.422ZM43,43.04a1,1,0,0,0-1,1v4a1,1,0,0,0,1,1h3.586l-2,2H40.414l-3.707-3.707A1,1,0,0,0,36,47.039H28a1,1,0,0,0-.707.292L23.586,51.04H19.414l-2-2H21a1,1,0,0,0,1-1v-4a1,1,0,0,0-1-1H17.414l2-2h4.172l3.707,3.707a1,1,0,0,0,.707.292h8a1,1,0,0,0,.707-.293l3.707-3.707h4.172l2,2Z"/></g></svg>
